<?xml version="1.0" encoding="utf-8"?>
<!-- Generator: Adobe Illustrator 17.0.0, SVG Export Plug-In . SVG Version: 6.00 Build 0)  -->
<!DOCTYPE svg PUBLIC "-//W3C//DTD SVG 1.1//EN" "http://www.w3.org/Graphics/SVG/1.1/DTD/svg11.dtd">
<svg version="1.1" id="Layer_1" xmlns="http://www.w3.org/2000/svg" xmlns:xlink="http://www.w3.org/1999/xlink" x="0px"
     y="0px"
     width="40.891px" height="40.98px" viewBox="-8.196 58.024 40.891 40.98"
     enable-background="new -8.196 58.024 40.891 40.98"
     xml:space="preserve">
<path fill="#AEAEAE" d="M32.696,95.696c0,1.827-1.481,3.308-3.308,3.308H-4.887c-1.827,0-3.308-1.481-3.308-3.308V61.332
	c0-1.827,1.481-3.308,3.308-3.308h34.275c1.827,0,3.308,1.481,3.308,3.308V95.696z"/>
    <g>
	<path fill="#FFFFFF" d="M11.624,66.677c0.163-0.171,0.381-0.308,0.625-0.299c0.244-0.009,0.461,0.129,0.625,0.3
		c0,0,7.435,7.435,11.153,11.152c0.17,0.174,0.375,0.341,0.436,0.59c0.077,0.267-0.024,0.556-0.215,0.749
		c-0.357,0.362-0.721,0.718-1.077,1.08c-0.188,0.2-0.423,0.412-0.718,0.397c-0.221,0.012-0.421-0.115-0.577-0.26
		c-3.211-3.206-6.413-6.42-9.627-9.621c-3.138,3.122-6.26,6.26-9.394,9.387c-0.207,0.209-0.425,0.468-0.741,0.492
		c-0.265,0.036-0.509-0.112-0.687-0.294c-0.391-0.396-0.79-0.786-1.181-1.183c-0.324-0.302-0.307-0.851,0.028-1.139
		C4.056,74.243,7.841,70.461,11.624,66.677z"/>
</g>
</svg>
